<svg fill="currentColor" height="42" viewBox="0 0 253 42" width="253" xmlns="http://www.w3.org/2000/svg">
  <g>
    <style>
      @media (prefers-color-scheme: dark) {
        html[data-color-mode="auto"] path {
          fill: #ffffff;
        }
      }
      html[data-color-mode="dark"] path, {
        fill: #ffffff;
      }
    </style>
    <path d="M12.11 21L0 42L12.11 35V21Z" fill="#079156"></path>
    <path d="M24.24 42H48.51L36.35 35L24.24 42Z" fill="#007E49"></path>
    <path d="M24.24 0L36.35 21L24.24 14V0Z" fill="#13AE67"></path>
    <path d="M66.37 25.71C66.1176 26.1942 65.7787 26.628 65.37 26.99C64.9636 27.3372 64.5001 27.6113 64 27.8C63.4475 27.9933 62.8653 28.0881 62.28 28.08C61.6328 28.0815 60.9913 27.9593 60.39 27.72C59.8038 27.4916 59.2673 27.1521 58.81 26.72C58.5141 26.4285 58.2675 26.0907 58.08 25.72C57.8878 25.3633 57.7528 24.9786 57.68 24.58C57.5929 24.0846 57.546 23.583 57.54 23.08V19C57.5465 18.5004 57.5933 18.0021 57.68 17.51C57.8341 16.691 58.2273 15.9359 58.81 15.34C59.2673 14.9079 59.8038 14.5684 60.39 14.34C61.545 13.8876 62.8217 13.8522 64 14.24C64.5121 14.4224 64.9866 14.6969 65.4 15.05C65.8057 15.411 66.1443 15.841 66.4 16.32C66.6826 16.847 66.8848 17.4132 67 18H65.89C65.7284 17.1212 65.2821 16.32 64.62 15.72C63.9524 15.1581 63.1024 14.8593 62.23 14.88C61.7471 14.8957 61.2718 15.0044 60.83 15.2C60.374 15.3768 59.9613 15.6496 59.62 16C59.3769 16.2252 59.1769 16.4929 59.03 16.79C58.8708 17.1042 58.7628 17.4418 58.71 17.79C58.6316 18.2393 58.5881 18.694 58.58 19.15V23C58.5781 23.4552 58.6115 23.9099 58.68 24.36C58.7328 24.7082 58.8408 25.0458 59 25.36C59.1469 25.6571 59.3469 25.9248 59.59 26.15C59.9336 26.5 60.3454 26.7757 60.8 26.96C61.2518 27.1398 61.7338 27.2314 62.22 27.23C63.0973 27.2513 63.9517 26.9487 64.62 26.38C65.3003 25.7531 65.748 24.9141 65.89 24H66.89C66.7999 24.585 66.6177 25.1521 66.35 25.68L66.37 25.71Z" fill="#000000"></path>
    <path d="M80.9 23.05C80.894 23.553 80.8471 24.0546 80.76 24.55C80.678 24.9461 80.5435 25.3295 80.36 25.69C80.1725 26.0607 79.9259 26.3985 79.63 26.69C79.1701 27.1236 78.63 27.4632 78.04 27.69C76.8242 28.1799 75.4658 28.1799 74.25 27.69C73.6638 27.4616 73.1273 27.1221 72.67 26.69C72.371 26.4011 72.1241 26.0628 71.94 25.69C71.7522 25.3314 71.6174 24.9474 71.54 24.55C71.4479 24.0553 71.401 23.5532 71.4 23.05V19C71.4015 18.5001 71.4483 18.0014 71.54 17.51C71.6376 17.1066 71.7925 16.7194 72 16.36C72.1866 15.9887 72.4332 15.6508 72.73 15.36C73.1873 14.9279 73.7238 14.5884 74.31 14.36C75.5258 13.8701 76.8842 13.8701 78.1 14.36C78.69 14.5868 79.2301 14.9264 79.69 15.36C79.9838 15.6534 80.23 15.9908 80.42 16.36C80.5977 16.7299 80.7319 17.1192 80.82 17.52C80.8995 18.0093 80.9396 18.5043 80.94 19V21C80.94 21.83 80.91 22.49 80.9 23.05ZM79.9 19.12C79.8885 18.6637 79.8417 18.209 79.76 17.76C79.7062 17.4133 79.6018 17.0763 79.45 16.76C79.0525 16.0336 78.4116 15.4706 77.64 15.17C76.726 14.8003 75.704 14.8003 74.79 15.17C74.3352 15.3492 73.923 15.6218 73.58 15.97C73.3391 16.1972 73.1394 16.4645 72.99 16.76C72.8308 17.0742 72.7228 17.4118 72.67 17.76C72.5932 18.2097 72.5464 18.6641 72.53 19.12V22.92C72.5251 23.3916 72.5552 23.8629 72.62 24.33C72.6728 24.6782 72.7808 25.0158 72.94 25.33C73.0894 25.6255 73.2891 25.8928 73.53 26.12C73.8753 26.4679 74.2867 26.7433 74.74 26.93C75.656 27.2895 76.674 27.2895 77.59 26.93C78.0463 26.7435 78.461 26.4682 78.81 26.12C79.0448 25.8874 79.2436 25.6212 79.4 25.33C79.5518 25.0137 79.6562 24.6767 79.71 24.33C79.7829 23.8902 79.823 23.4457 79.83 23V21.07C79.83 20.33 79.83 19.65 79.83 19.12H79.9Z" fill="#000000"></path>
    <path d="M95.5 22.3C95.4907 22.8331 95.4405 23.3646 95.35 23.89C95.2896 24.4047 95.1722 24.9112 95 25.4C94.824 25.8711 94.5515 26.3003 94.2 26.66C93.7699 27.078 93.2549 27.3986 92.69 27.6C92.0477 27.8257 91.3708 27.9374 90.69 27.93H86V14.08H90.67C91.3071 14.0476 91.9442 14.1432 92.5437 14.3614C93.1431 14.5795 93.6928 14.9157 94.16 15.35C94.499 15.6929 94.7704 16.0966 94.96 16.54C95.1398 16.981 95.2706 17.4404 95.35 17.91C95.44 18.3917 95.4902 18.88 95.5 19.37V22.3ZM94.5 19.56C94.4923 19.1284 94.4589 18.6976 94.4 18.27C94.3414 17.8543 94.2409 17.4455 94.1 17.05C93.9556 16.6796 93.7418 16.3401 93.47 16.05C93.0688 15.6373 92.5593 15.3462 92 15.21C91.4863 15.0637 90.9541 14.9929 90.42 15H87.06V27H90.42C90.9536 27.0103 91.4858 26.943 92 26.8C92.5334 26.6649 93.0205 26.3886 93.41 26C93.6871 25.714 93.9017 25.3734 94.04 25C94.18 24.5598 94.2804 24.108 94.34 23.65C94.3985 23.1788 94.4319 22.7048 94.44 22.23V19.6L94.5 19.56Z" fill="#000000"></path>
    <path d="M100.58 28V14.08H109V15H101.61V20.5H107.9V21.43H101.61V27H109V28H100.58Z" fill="#000000"></path>
    <path d="M134.83 28V16.52L130.61 26H129.61L125.3 16.51V28H124.3V14.08H125.3L130.16 24.79L134.84 14.08H135.9V28H134.83Z" fill="#000000"></path>
    <path d="M142.6 23.48C142.533 24.4656 142.809 25.444 143.38 26.25C143.657 26.5844 144.008 26.8492 144.406 27.0229C144.804 27.1966 145.237 27.2744 145.67 27.25C146.156 27.2587 146.639 27.1703 147.09 26.99C147.525 26.7617 147.92 26.4646 148.26 26.11L149.01 26.7C148.784 26.9225 148.544 27.1296 148.29 27.32C148.056 27.5005 147.801 27.6516 147.53 27.77C147.25 27.8899 146.959 27.9804 146.66 28.04C146.329 28.091 145.995 28.1177 145.66 28.12C145.101 28.1594 144.54 28.0705 144.02 27.86C143.504 27.6309 143.046 27.2892 142.68 26.86C141.939 25.82 141.585 24.5535 141.68 23.28C141.598 22.0172 141.951 20.7644 142.68 19.73C143.003 19.3022 143.425 18.9591 143.91 18.73C144.393 18.511 144.92 18.4082 145.45 18.43C145.975 18.4064 146.498 18.5021 146.98 18.71C147.463 18.9187 147.891 19.2372 148.23 19.64C148.943 20.6139 149.296 21.8048 149.23 23.01V23.46L142.6 23.48ZM148.11 22.11C148.1 21.9622 148.08 21.8152 148.05 21.67C148.036 21.5455 148.002 21.4241 147.95 21.31L147.82 20.9C147.613 20.423 147.264 20.0214 146.82 19.75C146.383 19.467 145.871 19.3207 145.35 19.33C144.826 19.3224 144.312 19.4684 143.87 19.75C143.425 20.0199 143.076 20.4219 142.87 20.9C142.811 21.0333 142.761 21.1703 142.72 21.31C142.703 21.4319 142.676 21.5523 142.64 21.67C142.601 21.8133 142.58 21.9613 142.58 22.11V22.68H148.13C148.13 22.46 148.12 22.3 148.11 22.11V22.11Z" fill="#13AE67"></path>
    <path d="M155.1 23.48C155.037 24.4667 155.316 25.4449 155.89 26.25C156.163 26.5717 156.505 26.828 156.89 27C157.289 27.1641 157.72 27.2359 158.15 27.21C158.636 27.2187 159.119 27.1303 159.57 26.95C160.012 26.7279 160.411 26.43 160.75 26.07L161.49 26.66C161.268 26.8824 161.03 27.0895 160.78 27.28C160.546 27.4605 160.291 27.6116 160.02 27.73C159.74 27.8499 159.449 27.9404 159.15 28C158.819 28.0514 158.485 28.0781 158.15 28.08C157.578 28.133 157.002 28.0473 156.47 27.83C155.937 27.6106 155.464 27.2678 155.09 26.83C154.361 25.8032 154.008 24.5566 154.09 23.3C154.012 22.0376 154.365 20.7861 155.09 19.75C155.415 19.3195 155.841 18.976 156.33 18.75C157.313 18.3632 158.407 18.3632 159.39 18.75C159.872 18.9612 160.299 19.2793 160.64 19.68C161.358 20.6513 161.712 21.8441 161.64 23.05V23.5L155.1 23.48ZM160.61 22.11C160.619 21.9615 160.602 21.8126 160.56 21.67C160.51 21.54 160.5 21.43 160.46 21.31L160.33 20.9C160.12 20.4251 159.771 20.0244 159.33 19.75C158.887 19.4755 158.376 19.33 157.855 19.33C157.334 19.33 156.823 19.4755 156.38 19.75C155.936 20.0204 155.586 20.4223 155.38 20.9C155.32 21.0318 155.273 21.1691 155.24 21.31L155.15 21.67C155.16 21.8201 155.136 21.9705 155.08 22.11C155.05 22.2988 155.05 22.4912 155.08 22.68H160.63C160.646 22.4903 160.646 22.2997 160.63 22.11H160.61Z" fill="#079156"></path>
    <path d="M167.6 23.48C167.543 24.4646 167.818 25.4399 168.38 26.25C168.657 26.5674 168.998 26.823 169.38 27C169.779 27.1641 170.21 27.2359 170.64 27.21C171.136 27.2401 171.633 27.1686 172.1 27C172.537 26.7742 172.932 26.4768 173.27 26.12L174.02 26.71C173.792 26.9301 173.551 27.1371 173.3 27.33C173.066 27.5105 172.811 27.6616 172.54 27.78C172.26 27.8999 171.969 27.9904 171.67 28.05C171.339 28.101 171.005 28.1277 170.67 28.13C170.108 28.1771 169.543 28.0902 169.022 27.8764C168.5 27.6625 168.037 27.3279 167.67 26.9C166.929 25.86 166.575 24.5935 166.67 23.32C166.593 22.0577 166.945 20.8065 167.67 19.77C167.993 19.3422 168.415 18.9991 168.9 18.77C169.383 18.552 169.91 18.4493 170.44 18.47C170.965 18.4444 171.489 18.5402 171.971 18.7501C172.454 18.96 172.881 19.2782 173.22 19.68C173.938 20.6513 174.292 21.8442 174.22 23.05V23.5L167.6 23.48ZM173.12 22.11C173.11 21.9622 173.09 21.8152 173.06 21.67C173.06 21.55 173 21.43 172.96 21.31C172.935 21.167 172.887 21.0287 172.82 20.9C172.614 20.4219 172.265 20.0199 171.82 19.75C171.371 19.4677 170.851 19.318 170.32 19.318C169.789 19.318 169.269 19.4677 168.82 19.75C168.376 20.0204 168.026 20.4223 167.82 20.9C167.761 21.0333 167.711 21.1703 167.67 21.31C167.654 21.4331 167.624 21.554 167.58 21.67C167.549 21.8146 167.532 21.962 167.53 22.11V22.68H173.08C173.14 22.46 173.13 22.3 173.12 22.11Z" fill="#007E49"></path>
    <path d="M197.62 27.19C196.625 27.9133 195.408 28.2669 194.18 28.19C193.704 28.1948 193.229 28.1546 192.76 28.07C191.948 27.959 191.175 27.65 190.51 27.17C190.151 26.9301 189.816 26.6555 189.51 26.35L190.25 25.61C190.529 25.8967 190.834 26.1577 191.16 26.39C191.722 26.8109 192.384 27.0796 193.08 27.17C193.457 27.2265 193.839 27.2532 194.22 27.25C195.153 27.3021 196.076 27.0378 196.84 26.5C197.156 26.2482 197.407 25.9243 197.573 25.5555C197.738 25.1866 197.813 24.7836 197.79 24.38C197.817 24.0191 197.762 23.6568 197.63 23.32C197.498 22.9828 197.293 22.6789 197.03 22.43L196.67 22.15C196.54 22.0726 196.403 22.0089 196.26 21.96L195.74 21.81L195.02 21.69L193.4 21.43C192.494 21.3421 191.633 20.9949 190.92 20.43C190.551 20.1179 190.26 19.7242 190.07 19.28C189.882 18.8381 189.797 18.3595 189.82 17.88C189.804 17.3603 189.901 16.8433 190.105 16.3649C190.308 15.8866 190.614 15.4583 191 15.11C191.898 14.3992 193.026 14.0433 194.17 14.11C194.902 14.0819 195.632 14.1974 196.32 14.45C197.011 14.7055 197.643 15.0965 198.18 15.6L197.5 16.27C197.27 16.08 197.05 15.91 196.83 15.75C196.604 15.5936 196.362 15.4597 196.11 15.35C195.828 15.2287 195.533 15.1415 195.23 15.09C194.861 15.0217 194.486 14.9882 194.11 14.99C193.251 14.9385 192.405 15.2135 191.74 15.76C191.446 16.0379 191.22 16.3802 191.08 16.76C190.938 17.1261 190.873 17.5177 190.89 17.91C190.864 18.2504 190.915 18.5923 191.04 18.91C191.166 19.2257 191.361 19.5093 191.61 19.74C191.891 19.9657 192.205 20.1477 192.54 20.28C192.911 20.4241 193.297 20.528 193.69 20.59L195.19 20.83L196.05 20.99C196.464 21.0579 196.861 21.2039 197.22 21.42C197.378 21.5186 197.528 21.6289 197.67 21.75C198.053 22.062 198.358 22.4593 198.56 22.91C198.778 23.3906 198.89 23.9123 198.89 24.44C198.914 24.9743 198.818 25.5073 198.61 26C198.394 26.4903 198.069 26.9247 197.66 27.27L197.62 27.19Z" fill="#13AE67"></path>
    <path d="M207.16 15.15V28.15H206.16V15.15H202V14.21H211.37V15.15H207.16Z" fill="#13AE67"></path>
    <path d="M224.39 23.18C224.389 23.6832 224.342 24.1853 224.25 24.68C224.182 25.0785 224.051 25.4635 223.86 25.82C223.669 26.1886 223.423 26.5258 223.13 26.82C222.423 27.4838 221.54 27.9309 220.587 28.1082C219.633 28.2854 218.648 28.1854 217.75 27.82C217.163 27.593 216.626 27.2533 216.17 26.82C215.879 26.5216 215.63 26.1852 215.43 25.82C215.249 25.4605 215.121 25.0765 215.05 24.68C214.951 24.1859 214.898 23.6838 214.89 23.18V19.13C214.898 18.6295 214.952 18.1308 215.05 17.64C215.122 17.2375 215.25 16.847 215.43 16.48C215.63 16.1148 215.879 15.7784 216.17 15.48C216.626 15.0461 217.163 14.7063 217.75 14.48C218.966 13.9901 220.324 13.9901 221.54 14.48C222.13 14.7063 222.67 15.046 223.13 15.48C223.421 15.776 223.667 16.1129 223.86 16.48C224.048 16.8448 224.179 17.2359 224.25 17.64C224.342 18.1314 224.389 18.6301 224.39 19.13V23.18ZM223.39 19.25C223.376 18.7943 223.333 18.34 223.26 17.89C223.199 17.5424 223.088 17.2055 222.93 16.89C222.784 16.5949 222.588 16.3276 222.35 16.1C222.005 15.754 221.593 15.4818 221.14 15.3C220.223 14.9297 219.197 14.9297 218.28 15.3C217.822 15.4791 217.407 15.7515 217.06 16.1C216.828 16.3305 216.636 16.5974 216.49 16.89C216.323 17.2018 216.212 17.5401 216.16 17.89C216.079 18.3391 216.032 18.7938 216.02 19.25V23.05C216.032 23.5096 216.078 23.9676 216.16 24.42C216.21 24.7702 216.322 25.1087 216.49 25.42C216.632 25.7178 216.825 25.9885 217.06 26.22C217.409 26.5652 217.824 26.8372 218.28 27.02C219.199 27.3802 220.221 27.3802 221.14 27.02C221.593 26.8382 222.005 26.566 222.35 26.22C222.588 25.9887 222.784 25.7181 222.93 25.42C223.09 25.1051 223.201 24.768 223.26 24.42C223.333 23.9667 223.377 23.509 223.39 23.05V21.16C223.39 20.42 223.31 19.78 223.29 19.25H223.39Z" fill="#13AE67"></path>
    <path d="M237.66 28.1L234.34 21.7H230.48V28.1H229.48V14.21H234.77C235.309 14.2049 235.846 14.2859 236.36 14.45C236.822 14.6082 237.249 14.8525 237.62 15.17C237.991 15.486 238.279 15.8876 238.46 16.34C238.672 16.8464 238.778 17.391 238.77 17.94C238.805 18.8592 238.495 19.7583 237.9 20.46C237.28 21.1197 236.456 21.5497 235.56 21.68L238.92 28.1H237.66ZM237.46 16.71C237.319 16.3703 237.1 16.0687 236.82 15.83C236.529 15.5845 236.188 15.4069 235.82 15.31C235.42 15.1967 235.006 15.1427 234.59 15.15H230.49V20.77H234.59C235.007 20.7705 235.421 20.7098 235.82 20.59C236.187 20.4967 236.529 20.3225 236.82 20.08C237.097 19.8431 237.316 19.5454 237.46 19.21C237.612 18.8111 237.687 18.3869 237.68 17.96C237.692 17.5327 237.618 17.1073 237.46 16.71V16.71Z" fill="#13AE67"></path>
    <path d="M243.65 28.1V14.21H252.1V15.15H244.67V20.62H251V21.56H244.71V27.15H252.1V28.15L243.65 28.1Z" fill="#13AE67"></path>
  </g>
</svg>
